<svg xmlns="http://www.w3.org/2000/svg" viewBox="0 0 24 24" aria-hidden="true">
  <rect width="24" height="24" rx="6" fill="#fff"/>
  <path fill="#4285F4" d="M21.6 12.23c0-.68-.06-1.34-.17-1.97H12v3.73h5.4a4.7 4.7 0 0 1-2.04 3.08v2.55h3.3c1.93-1.78 3.04-4.4 3.04-7.39Z"/>
  <path fill="#34A853" d="M12 22c2.7 0 4.97-.9 6.62-2.43l-3.3-2.55c-.9.6-2.05.96-3.32.96-2.55 0-4.72-1.72-5.5-4.03H3.06v2.63A9.99 9.99 0 0 0 12 22Z"/>
  <path fill="#FBBC05" d="M6.5 13.95a5.98 5.98 0 0 1 0-3.9V7.42H3.06a9.99 9.99 0 0 0 0 8.16l3.44-2.63Z"/>
  <path fill="#EA4335" d="M12 5.38c1.47 0 2.78.5 3.81 1.48l2.85-2.85C16.96 2.4 14.7 1.5 12 1.5 7.7 1.5 3.98 4.02 2.06 7.42l3.44 2.63C6.28 7.1 8.45 5.38 12 5.38Z"/>
</svg>
