<svg xmlns="http://www.w3.org/2000/svg" viewBox="0 0 24 24" fill="currentColor" aria-hidden="true">
  <path d="M12.78 17.5h1.52c.37 0 .55-.22.55-.48 0-.34-.04-.6.4-1.05.5-.51 1.15-1.18 1.66-1.75.94-1.03 1.97-2.24 1.74-2.5-.2-.22-.84-.16-1.2-.16-.42 0-.64.06-.9.54-.36.66-1.2 2.1-1.5 2.1-.1 0-.16-.1-.16-.34V9.84c0-.3.05-.46.3-.55.15-.06.8-.1 1.34-.1 1.05 0 1.3-.15 1.46-.55.1-.24.1-.55-.02-.7-.2-.28-.7-.4-1.5-.4h-2.1c-.85 0-1.16.42-1.16 1.02v3.55c0 .2-.1.3-.26.3-.24 0-.68-.42-1.08-1.05-.6-.92-1.08-1.92-1.34-2.4-.2-.36-.5-.52-1.04-.52H8.2c-.4 0-.58.2-.58.48 0 .45.6 1.7 1.9 3.1.95 1.02 1.9 1.55 2.55 1.55.2 0 .3.1.3.34v1.52c0 .24-.1.42-.4.42z"/>
  <path fill-rule="evenodd" d="M4.5 3.5h15A2.5 2.5 0 0 1 22 6v12a2.5 2.5 0 0 1-2.5 2.5h-15A2.5 2.5 0 0 1 2 18V6a2.5 2.5 0 0 1 2.5-2.5zm0 1.5A1 1 0 0 0 3.5 6v12a1 1 0 0 0 1 1h15a1 1 0 0 0 1-1V6a1 1 0 0 0-1-1h-15z" clip-rule="evenodd"/>
</svg>
